<svg width="30" height="30" viewBox="0 0 30 30" fill="currentColor" xmlns="http://www.w3.org/2000/svg">
<path d="M29.795 10.9925C29.5393 10.1786 29.0285 9.46864 28.3381 8.96754C27.6476 8.46645 26.8143 8.20084 25.9612 8.21H20.5L18.8412 3.04C18.5804 2.2262 18.0678 1.51627 17.3775 1.01259C16.6871 0.5089 15.8546 0.237488 15 0.237488C14.1454 0.237488 13.3129 0.5089 12.6225 1.01259C11.9322 1.51627 11.4196 2.2262 11.1587 3.04L9.5 8.21H4.03875C3.18843 8.21122 2.36024 8.48111 1.67247 8.98114C0.984707 9.48116 0.472548 10.1857 0.209149 10.9942C-0.0542504 11.8027 -0.0554163 12.6738 0.205818 13.483C0.467052 14.2922 0.977323 14.9981 1.66375 15.5L6.10875 18.75L4.41875 23.9838C4.14564 24.7955 4.14218 25.6738 4.40888 26.4876C4.67559 27.3015 5.19818 28.0073 5.89875 28.5C6.58731 29.0085 7.42174 29.2809 8.27769 29.2766C9.13364 29.2723 9.9653 28.9916 10.6487 28.4763L15 25.2738L19.3525 28.4725C20.0398 28.9781 20.8697 29.2527 21.723 29.2568C22.5762 29.261 23.4087 28.9945 24.101 28.4956C24.7932 27.9968 25.3094 27.2913 25.5754 26.4806C25.8413 25.6699 25.8434 24.7957 25.5812 23.9838L23.8912 18.75L28.3412 15.5C29.0355 15.0044 29.5518 14.2985 29.8136 13.4867C30.0754 12.6749 30.0689 11.8003 29.795 10.9925ZM26.8662 13.4813L21.6862 17.2675C21.4735 17.4227 21.3152 17.6412 21.2339 17.8917C21.1527 18.1422 21.1526 18.412 21.2337 18.6625L23.2025 24.75C23.3021 25.0588 23.3013 25.3912 23.2001 25.6994C23.0989 26.0076 22.9025 26.2759 22.6393 26.4655C22.376 26.6551 22.0594 26.7564 21.735 26.7547C21.4106 26.753 21.095 26.6486 20.8337 26.4563L15.74 22.7063C15.5255 22.5487 15.2662 22.4637 15 22.4637C14.7338 22.4637 14.4745 22.5487 14.26 22.7063L9.16625 26.4563C8.9051 26.6511 8.58867 26.7578 8.26283 26.7608C7.93699 26.7637 7.61867 26.6628 7.35403 26.4727C7.08939 26.2826 6.89218 26.0131 6.79099 25.7034C6.6898 25.3936 6.68989 25.0597 6.79125 24.75L8.76625 18.6625C8.84739 18.412 8.84733 18.1422 8.76607 17.8917C8.68482 17.6412 8.52651 17.4227 8.31375 17.2675L3.13375 13.4813C2.87288 13.2902 2.67904 13.0217 2.57992 12.7139C2.48081 12.4062 2.48148 12.075 2.58185 11.7676C2.68222 11.4603 2.87715 11.1925 3.1388 11.0026C3.40045 10.8126 3.71543 10.7102 4.03875 10.71H10.4137C10.6784 10.71 10.9362 10.626 11.1501 10.4701C11.3639 10.3142 11.5228 10.0945 11.6037 9.8425L13.5412 3.80375C13.6407 3.49474 13.8356 3.22524 14.098 3.03407C14.3604 2.84289 14.6766 2.73989 15.0012 2.73989C15.3259 2.73989 15.6421 2.84289 15.9045 3.03407C16.1669 3.22524 16.3618 3.49474 16.4612 3.80375L18.3987 9.8425C18.4797 10.0945 18.6386 10.3142 18.8524 10.4701C19.0663 10.626 19.3241 10.71 19.5887 10.71H25.9637C26.2871 10.7102 26.602 10.8126 26.8637 11.0026C27.1253 11.1925 27.3203 11.4603 27.4206 11.7676C27.521 12.075 27.5217 12.4062 27.4226 12.7139C27.3235 13.0217 27.1296 13.2902 26.8687 13.4813H26.8662Z" fill="currentColor"/>
</svg>
