<svg width="32" height="32" viewBox="0 0 32 32" fill="none" xmlns="http://www.w3.org/2000/svg">
<path d="M18.828 16L24 10.8227C24.3358 10.441 24.5136 9.94583 24.4974 9.43774C24.4812 8.92965 24.2721 8.4468 23.9127 8.08735C23.5532 7.72789 23.0703 7.5188 22.5623 7.50258C22.0542 7.48636 21.559 7.66422 21.1773 8.00001L16 13.172L10.8133 7.98401C10.6275 7.79824 10.407 7.65087 10.1643 7.55033C9.92153 7.44979 9.66137 7.39804 9.39865 7.39804C9.13592 7.39804 8.87576 7.44979 8.63304 7.55033C8.39031 7.65087 8.16976 7.79824 7.98398 7.98401C7.7982 8.16979 7.65084 8.39034 7.5503 8.63307C7.44975 8.8758 7.39801 9.13595 7.39801 9.39868C7.39801 9.66141 7.44975 9.92156 7.5503 10.1643C7.65084 10.407 7.7982 10.6276 7.98398 10.8133L13.172 16L7.99998 21.176C7.79714 21.3573 7.63343 21.5781 7.51887 21.8249C7.4043 22.0717 7.34128 22.3392 7.33367 22.6112C7.32606 22.8831 7.37401 23.1538 7.4746 23.4066C7.57519 23.6593 7.72629 23.8889 7.91867 24.0813C8.11105 24.2737 8.34066 24.4248 8.59344 24.5254C8.84623 24.626 9.11688 24.6739 9.38884 24.6663C9.66079 24.6587 9.92834 24.5957 10.1751 24.4811C10.4219 24.3666 10.6427 24.2029 10.824 24L16 18.828L21.1706 24C21.5458 24.3752 22.0547 24.586 22.5853 24.586C23.1159 24.586 23.6248 24.3752 24 24C24.3752 23.6248 24.586 23.116 24.586 22.5853C24.586 22.0547 24.3752 21.5459 24 21.1707L18.828 16Z" fill="white"/>
</svg>
