<svg width="24" height="24" viewBox="0 0 24 24" fill="none" xmlns="http://www.w3.org/2000/svg">
<path d="M12.707 17.707C13.098 18.098 13.098 18.73 12.707 19.121L8.41401 23.414C8.02401 23.804 7.51201 23.999 7.00001 23.999C6.48801 23.999 5.97601 23.804 5.58601 23.414L1.29301 19.121C0.902006 18.73 0.902006 18.098 1.29301 17.707C1.68401 17.316 2.31601 17.316 2.70701 17.707L6.00001 21V1C6.00001 0.447 6.44801 0 7.00001 0C7.55201 0 8.00001 0.447 8.00001 1V21L11.293 17.707C11.684 17.316 12.316 17.316 12.707 17.707ZM22.707 4.879L18.414 0.586C17.635 -0.193 16.365 -0.193 15.586 0.586L11.293 4.879C10.902 5.27 10.902 5.902 11.293 6.293C11.684 6.684 12.316 6.684 12.707 6.293L16 3V23C16 23.553 16.447 24 17 24C17.553 24 18 23.553 18 23V3L21.293 6.293C21.488 6.488 21.744 6.586 22 6.586C22.256 6.586 22.512 6.488 22.707 6.293C23.098 5.902 23.098 5.27 22.707 4.879Z" fill="#C1C1C1"/>
</svg>
